<svg width="240" height="88" viewBox="0 0 240 88" fill="none" xmlns="http://www.w3.org/2000/svg">
<path d="M23.4452 2.8C19.9594 2.8 16.7768 4.89067 15.4128 8.02667L7.98652 25.2H104.225L114 2.8H23.4452Z" fill="#4E38CC"/>
<path d="M11.7754 2.8H23.4452C23.3284 2.8 23.214 2.80226 23.102 2.80676C19.7518 2.9388 16.7319 4.99392 15.4128 8.02667L7.98652 25.2H2L11.7754 2.8Z" fill="#8A75FF"/>
<path d="M27.5372 9.51999C25.4154 9.51999 23.7483 11.1627 23.7483 13.2533V18.704H25.2639V13.2533C25.2639 11.984 26.249 11.0133 27.5372 11.0133C28.8254 11.0133 29.8106 11.984 29.8106 13.2533V18.704H31.3261V13.2533C31.3261 11.2373 29.5832 9.51999 27.5372 9.51999Z" fill="white"/>
<path d="M51.4831 13.2533V18.704H52.9986V13.2533C52.9986 11.984 53.9837 11.0133 55.272 11.0133H56.0298V9.51999H55.272C53.1502 9.51999 51.4831 11.2373 51.4831 13.2533Z" fill="white"/>
<path d="M47.9973 14.9707C47.9973 16.24 47.0122 17.2107 45.7239 17.2107C44.4357 17.2107 43.4506 16.24 43.4506 14.9707V9.51999H41.935V14.9707C41.935 17.0613 43.6021 18.704 45.7239 18.704C47.8457 18.704 49.5128 17.0613 49.5128 14.9707V9.51999H47.9973V14.9707Z" fill="white"/>
<path d="M60.4249 9.51999C58.3031 9.51999 56.636 11.1627 56.636 13.2533V14.9707C56.636 17.0613 58.3031 18.704 60.4249 18.704C62.5467 18.704 64.2138 17.0613 64.2138 14.9707V13.2533C64.2896 11.2373 62.5467 9.51999 60.4249 9.51999ZM62.6982 14.9707C62.6982 16.24 61.7131 17.2107 60.4249 17.2107C59.1367 17.2107 58.1516 16.24 58.1516 14.9707V13.2533C58.1516 11.984 59.1367 11.0133 60.4249 11.0133C61.7131 11.0133 62.6982 11.984 62.6982 13.2533V14.9707Z" fill="white"/>
<path d="M36.6306 9.51999C34.5088 9.51999 32.8417 11.1627 32.8417 13.2533V14.9707C32.8417 17.0613 34.5088 18.704 36.6306 18.704C38.7524 18.704 40.4195 17.0613 40.4195 14.9707H38.9039C38.9039 16.24 37.9188 17.2107 36.6306 17.2107C35.5697 17.2107 34.6604 16.464 34.433 15.4933L40.4195 13.776V13.1786C40.4195 11.2373 38.7524 9.51999 36.6306 9.51999ZM34.3573 14V13.2533C34.3573 11.984 35.3424 11.0133 36.6306 11.0133C37.6915 11.0133 38.6008 11.76 38.8281 12.7307L34.3573 14Z" fill="white"/>
<path d="M88.0081 9.51999C85.8864 9.51999 84.2192 11.1627 84.2192 13.2533V14.9707C84.2192 17.0613 85.8864 18.704 88.0081 18.704C90.1299 18.704 91.797 17.0613 91.797 14.9707H90.2815C90.2815 16.24 89.2964 17.2107 88.0081 17.2107C86.9473 17.2107 86.0379 16.464 85.8106 15.4933L91.797 13.776V13.1786C91.797 11.2373 90.0541 9.51999 88.0081 9.51999ZM85.7348 14V13.2533C85.7348 11.984 86.7199 11.0133 88.0081 11.0133C89.069 11.0133 89.9784 11.76 90.2057 12.7307L85.7348 14Z" fill="white"/>
<path d="M69.7457 9.51999C68.9121 9.51999 68.0785 9.81865 67.4723 10.2667V9.51999H65.9567V21.6907H67.4723V17.9573C68.0785 18.4053 68.9121 18.704 69.7457 18.704C71.8674 18.704 73.5346 17.0613 73.5346 14.9707V13.2533C73.5346 11.2373 71.8674 9.51999 69.7457 9.51999ZM72.019 14.9707C72.019 16.24 71.0339 17.2107 69.7457 17.2107C68.4574 17.2107 67.4723 16.24 67.4723 14.9707V13.2533C67.4723 11.984 68.4574 11.0133 69.7457 11.0133C71.0339 11.0133 72.019 11.984 72.019 13.2533V14.9707Z" fill="white"/>
<path d="M78.9148 9.52C78.0812 9.52 77.2476 9.81867 76.6414 10.2667V6.53333H75.1259V18.704H76.6414V13.2533C76.6414 11.984 77.6265 11.0133 78.9148 11.0133C80.203 11.0133 81.1881 11.984 81.1881 13.2533V18.704H82.7037V13.2533C82.7037 11.2373 80.9608 9.52 78.9148 9.52Z" fill="white"/>
<path d="M95.0555 14.9708V11.0134H97.4046L98.0866 9.52008H95.0555V8.25076H93.5399V9.52008H92.2517V11.0134H93.5399V14.9708C93.5399 17.0614 95.207 18.7041 97.3288 18.7041H98.0866V17.2108H97.3288C96.0406 17.2108 95.0555 16.2401 95.0555 14.9708Z" fill="white"/>
<path d="M213.852 76.9978V39.6328H224.823C232.137 39.6328 237.596 44.2968 237.596 52.7768V54.2078C237.596 62.6878 232.137 67.1398 224.823 67.1398H219.046V76.9978H213.852ZM219.046 62.1578H224.558C229.01 62.1578 232.455 59.7728 232.455 54.1548V52.7768C232.455 46.3108 228.639 44.6678 224.558 44.6678H219.046V62.1578Z" fill="#8A75FF"/>
<path d="M194.03 76.9978V44.6678H185.02V39.6328H208.287V44.6678H199.224V76.9978H194.03Z" fill="#8A75FF"/>
<path d="M169.557 77.5293C162.19 77.5293 157.102 72.1763 157.102 64.5443V51.8773C157.102 44.2453 162.19 38.9453 169.557 38.9453C177.189 38.9453 182.065 44.6163 182.065 52.4073V52.7253H176.871V52.3543C176.871 47.9553 174.539 43.9803 169.557 43.9803C165.9 43.9803 162.296 46.3123 162.296 51.7183V64.7033C162.296 69.8443 165.476 72.4943 169.557 72.4943C175.016 72.4943 176.871 67.8833 176.871 63.8023V63.4313H182.065V63.8023C182.065 71.7523 177.348 77.5293 169.557 77.5293Z" fill="#8A75FF"/>
<path d="M119.135 76.9978V39.6328H139.911V44.6678H124.329V55.9038H135.671V60.5148H124.329V71.9628H139.911V76.9978H119.135Z" fill="#8A75FF"/>
<path d="M94.291 76.9978V39.6328H99.485V71.9628H113.848V76.9978H94.291Z" fill="#8A75FF"/>
<path d="M59.8457 76.9978L71.9827 39.6328H77.8127L89.7377 76.9978H84.2787L81.7347 68.5708H67.8487L65.2517 76.9978H59.8457ZM69.1737 64.0658H80.4627L74.8977 45.3568L69.1737 64.0658Z" fill="#8A75FF"/>
<path d="M45.3886 77.5293C38.0216 77.5293 32.9336 72.1763 32.9336 64.5443V51.8773C32.9336 44.2453 38.0216 38.9453 45.3886 38.9453C53.0206 38.9453 57.8966 44.6163 57.8966 52.4073V52.7253H52.7026V52.3543C52.7026 47.9553 50.3706 43.9803 45.3886 43.9803C41.7316 43.9803 38.1276 46.3123 38.1276 51.7183V64.7033C38.1276 69.8443 41.3076 72.4943 45.3886 72.4943C50.8476 72.4943 52.7026 67.8833 52.7026 63.8023V63.4313H57.8966V63.8023C57.8966 71.7523 53.1796 77.5293 45.3886 77.5293Z" fill="#8A75FF"/>
<path d="M15.0512 77.6353C7.41923 77.6353 2.49023 73.5013 2.49023 65.1273H7.63123C7.63123 70.7453 10.5992 72.7063 15.0512 72.7063C19.1852 72.7063 22.2592 70.7453 22.2592 66.8233C22.2592 62.9013 18.6552 61.7353 14.5742 60.5693C9.22124 58.9793 3.02023 57.3893 3.02023 49.4923C3.02023 42.7613 7.36623 38.9453 14.7862 38.9453C22.2592 38.9453 27.0292 43.0263 27.0292 51.0823H21.8882C21.8882 45.9413 19.1852 43.7683 14.7862 43.7683C10.5992 43.7683 8.16123 45.7823 8.16123 49.4923C8.16123 53.6793 12.1362 54.7923 16.4822 56.0113C21.7292 57.4953 27.4532 59.1913 27.4532 66.7173C27.4532 73.7133 22.6832 77.6353 15.0512 77.6353Z" fill="#8A75FF"/>
</svg>
