<svg width="120" height="30" viewBox="0 0 120 30" fill="none" xmlns="http://www.w3.org/2000/svg">
<path d="M22.977 3C19.2422 3 15.8322 5.24 14.3708 8.6L6.41412 27H109.526L120 3H22.977Z" fill="#4E38CC"/>
<path d="M10.4736 3H22.977C22.8519 3 22.7293 3.00243 22.6092 3.00724C19.0198 3.14871 15.7841 5.35063 14.3708 8.6L6.41412 27H0L10.4736 3Z" fill="#8A75FF"/>
<path d="M27.3613 10.2C25.088 10.2 23.3018 11.96 23.3018 14.2V20.04H24.9256V14.2C24.9256 12.84 25.9811 11.8 27.3613 11.8C28.7415 11.8 29.797 12.84 29.797 14.2V20.04H31.4208V14.2C31.4208 12.04 29.5534 10.2 27.3613 10.2Z" fill="white"/>
<path d="M53.0176 14.2V20.04H54.6414V14.2C54.6414 12.84 55.6969 11.8 57.0771 11.8H57.889V10.2H57.0771C54.8038 10.2 53.0176 12.04 53.0176 14.2Z" fill="white"/>
<path d="M49.2828 16.04C49.2828 17.4 48.2273 18.44 46.8471 18.44C45.4668 18.44 44.4114 17.4 44.4114 16.04V10.2H42.7875V16.04C42.7875 18.28 44.5737 20.04 46.8471 20.04C49.1204 20.04 50.9066 18.28 50.9066 16.04V10.2H49.2828V16.04Z" fill="white"/>
<path d="M62.5981 10.2C60.3248 10.2 58.5386 11.96 58.5386 14.2V16.04C58.5386 18.28 60.3248 20.04 62.5981 20.04C64.8715 20.04 66.6577 18.28 66.6577 16.04V14.2C66.7388 12.04 64.8715 10.2 62.5981 10.2ZM65.0338 16.04C65.0338 17.4 63.9784 18.44 62.5981 18.44C61.2179 18.44 60.1624 17.4 60.1624 16.04V14.2C60.1624 12.84 61.2179 11.8 62.5981 11.8C63.9784 11.8 65.0338 12.84 65.0338 14.2V16.04Z" fill="white"/>
<path d="M37.1042 10.2C34.8309 10.2 33.0447 11.96 33.0447 14.2V16.04C33.0447 18.28 34.8309 20.04 37.1042 20.04C39.3776 20.04 41.1638 18.28 41.1638 16.04H39.5399C39.5399 17.4 38.4845 18.44 37.1042 18.44C35.9675 18.44 34.9932 17.64 34.7497 16.6L41.1638 14.76V14.12C41.1638 12.04 39.3776 10.2 37.1042 10.2ZM34.6685 15V14.2C34.6685 12.84 35.724 11.8 37.1042 11.8C38.2409 11.8 39.2151 12.6 39.4587 13.64L34.6685 15Z" fill="white"/>
<path d="M92.1516 10.2C89.8782 10.2 88.092 11.96 88.092 14.2V16.04C88.092 18.28 89.8782 20.04 92.1516 20.04C94.4249 20.04 96.2111 18.28 96.2111 16.04H94.5873C94.5873 17.4 93.5318 18.44 92.1516 18.44C91.0149 18.44 90.0406 17.64 89.797 16.6L96.2111 14.76V14.12C96.2111 12.04 94.3437 10.2 92.1516 10.2ZM89.7159 15V14.2C89.7159 12.84 90.7713 11.8 92.1516 11.8C93.2883 11.8 94.2626 12.6 94.5061 13.64L89.7159 15Z" fill="white"/>
<path d="M72.5846 10.2C71.6915 10.2 70.7984 10.52 70.1489 11V10.2H68.5251V23.24H70.1489V19.24C70.7984 19.72 71.6915 20.04 72.5846 20.04C74.858 20.04 76.6442 18.28 76.6442 16.04V14.2C76.6442 12.04 74.858 10.2 72.5846 10.2ZM75.0204 16.04C75.0204 17.4 73.9649 18.44 72.5846 18.44C71.2044 18.44 70.1489 17.4 70.1489 16.04V14.2C70.1489 12.84 71.2044 11.8 72.5846 11.8C73.9649 11.8 75.0204 12.84 75.0204 14.2V16.04Z" fill="white"/>
<path d="M82.4087 10.2C81.5156 10.2 80.6225 10.52 79.9729 11V7H78.3491V20.04H79.9729V14.2C79.9729 12.84 81.0284 11.8 82.4087 11.8C83.7889 11.8 84.8444 12.84 84.8444 14.2V20.04H86.4682V14.2C86.4682 12.04 84.6008 10.2 82.4087 10.2Z" fill="white"/>
<path d="M99.7023 16.0401V11.8001H102.219L102.95 10.2001H99.7023V8.8401H98.0785V10.2001H96.6982V11.8001H98.0785V16.0401C98.0785 18.2801 99.8647 20.0401 102.138 20.0401H102.95V18.4401H102.138C100.758 18.4401 99.7023 17.4001 99.7023 16.0401Z" fill="white"/>
</svg>
