<svg width="105" height="28" viewBox="0 0 105 28" fill="none" xmlns="http://www.w3.org/2000/svg">
<path d="M92.8027 22.9963V6.78125H97.5637C100.738 6.78125 103.107 8.80525 103.107 12.4853V13.1063C103.107 16.7863 100.738 18.7183 97.5637 18.7183H95.0567V22.9963H92.8027ZM95.0567 16.5563H97.4487C99.3807 16.5563 100.876 15.5213 100.876 13.0833V12.4853C100.876 9.67925 99.2197 8.96625 97.4487 8.96625H95.0567V16.5563Z" fill="#8A75FF"/>
<path d="M84.201 22.9963V8.96625H80.291V6.78125H90.388V8.96625H86.455V22.9963H84.201Z" fill="#8A75FF"/>
<path d="M73.5808 23.2284C70.3838 23.2284 68.1758 20.9054 68.1758 17.5934V12.0964C68.1758 8.78438 70.3838 6.48438 73.5808 6.48438C76.8928 6.48438 79.0088 8.94538 79.0088 12.3264V12.4644H76.7548V12.3034C76.7548 10.3944 75.7428 8.66938 73.5808 8.66938C71.9938 8.66938 70.4298 9.68138 70.4298 12.0274V17.6624C70.4298 19.8934 71.8098 21.0434 73.5808 21.0434C75.9498 21.0434 76.7548 19.0424 76.7548 17.2714V17.1104H79.0088V17.2714C79.0088 20.7214 76.9618 23.2284 73.5808 23.2284Z" fill="#8A75FF"/>
<path d="M51.6992 22.9963V6.78125H60.7152V8.96625H53.9532V13.8423H58.8752V15.8433H53.9532V20.8113H60.7152V22.9963H51.6992Z" fill="#8A75FF"/>
<path d="M40.918 22.9963V6.78125H43.172V20.8113H49.405V22.9963H40.918Z" fill="#8A75FF"/>
<path d="M25.9707 22.9963L31.2377 6.78125H33.7677L38.9427 22.9963H36.5737L35.4697 19.3393H29.4437L28.3167 22.9963H25.9707ZM30.0187 17.3843H34.9177L32.5027 9.26525L30.0187 17.3843Z" fill="#8A75FF"/>
<path d="M19.696 23.2284C16.499 23.2284 14.291 20.9054 14.291 17.5934V12.0964C14.291 8.78438 16.499 6.48438 19.696 6.48438C23.008 6.48438 25.124 8.94538 25.124 12.3264V12.4644H22.87V12.3034C22.87 10.3944 21.858 8.66938 19.696 8.66938C18.109 8.66938 16.545 9.68138 16.545 12.0274V17.6624C16.545 19.8934 17.925 21.0434 19.696 21.0434C22.065 21.0434 22.87 19.0424 22.87 17.2714V17.1104H25.124V17.2714C25.124 20.7214 23.077 23.2284 19.696 23.2284Z" fill="#8A75FF"/>
<path d="M6.53108 23.2744C3.21908 23.2744 1.08008 21.4804 1.08008 17.8464H3.31108C3.31108 20.2844 4.59908 21.1354 6.53108 21.1354C8.32508 21.1354 9.65908 20.2844 9.65908 18.5824C9.65908 16.8804 8.09508 16.3744 6.32408 15.8684C4.00108 15.1784 1.31008 14.4884 1.31008 11.0614C1.31008 8.14038 3.19608 6.48438 6.41608 6.48438C9.65908 6.48438 11.7291 8.25538 11.7291 11.7514H9.49808C9.49808 9.52038 8.32508 8.57738 6.41608 8.57738C4.59908 8.57738 3.54108 9.45138 3.54108 11.0614C3.54108 12.8784 5.26608 13.3614 7.15208 13.8904C9.42908 14.5344 11.9131 15.2704 11.9131 18.5364C11.9131 21.5724 9.84308 23.2744 6.53108 23.2744Z" fill="#8A75FF"/>
</svg>
 