<svg width="16" height="16" viewBox="0 0 16 16" fill="none" xmlns="http://www.w3.org/2000/svg">
<g opacity="0.6">
<path d="M12 5.33073H13.3333C13.5101 5.33073 13.6797 5.40097 13.8047 5.52599C13.9298 5.65102 14 5.82058 14 5.9974V13.9974C14 14.1742 13.9298 14.3438 13.8047 14.4688C13.6797 14.5938 13.5101 14.6641 13.3333 14.6641H2.66667C2.48986 14.6641 2.32029 14.5938 2.19526 14.4688C2.07024 14.3438 2 14.1742 2 13.9974V5.9974C2 5.82058 2.07024 5.65102 2.19526 5.52599C2.32029 5.40097 2.48986 5.33073 2.66667 5.33073H4V4.66406C4 3.6032 4.42143 2.58578 5.17157 1.83564C5.92172 1.08549 6.93913 0.664063 8 0.664062C9.06087 0.664063 10.0783 1.08549 10.8284 1.83564C11.5786 2.58578 12 3.6032 12 4.66406V5.33073ZM3.33333 6.66406V13.3307H12.6667V6.66406H3.33333ZM10.6667 5.33073V4.66406C10.6667 3.95682 10.3857 3.27854 9.88562 2.77844C9.38552 2.27835 8.70724 1.9974 8 1.9974C7.29276 1.9974 6.61448 2.27835 6.11438 2.77844C5.61428 3.27854 5.33333 3.95682 5.33333 4.66406V5.33073H10.6667Z" fill="white"/>
</g>
</svg>
