<svg width="16" height="16" viewBox="0 0 16 16" fill="none" xmlns="http://www.w3.org/2000/svg">
<g opacity="0.6">
<path fill-rule="evenodd" clip-rule="evenodd" d="M9.89145 11.4568C9.01547 12.112 7.92805 12.5 6.75 12.5C3.85051 12.5 1.5 10.1495 1.5 7.25C1.5 4.35051 3.85051 2 6.75 2C9.6495 2 12 4.35051 12 7.25C12 8.42805 11.612 9.51547 10.9568 10.3914L14 13.4346L12.9346 14.5L9.89145 11.4568ZM11 7.25C11 9.59721 9.09721 11.5 6.75 11.5C4.40279 11.5 2.5 9.59721 2.5 7.25C2.5 4.90279 4.40279 3 6.75 3C9.09721 3 11 4.90279 11 7.25Z" fill="white"/>
</g>
</svg>
